<?xml version="1.0" encoding="utf-8"?>
<svg height="800px" width="800px" viewBox="0 0 128 128" xml:space="preserve" xmlns="http://www.w3.org/2000/svg" xmlns:xlink="http://www.w3.org/1999/xlink" >
	<rect fill="#112233" x="1" y="1" width="126" height="126" rx="15" ></rect>
	<path fill="#00AA00" d="M115.4,68.6H93l15.9-19.8c0.7-0.8,0.7-2,0-2.7c-0.8-0.7-1.9-0.6-2.6,0.1l-10.5,12.7V45.6c0-0.8-0.7-1.4-1.5-1.4 s-1.4,0.6-1.4,1.4v13.7l-15.7,20l-10.3,8v-6.1v-7.6V59.5l20.9-20.9c0.9-0.9,1-2.5,0-3.5c-0.9-0.9-2.5-0.8-3.4,0.1l-10.2,10.2 l-1.1-12.6L90.9,15c0.7-0.7,0.7-1.8,0-2.5c-0.7-0.7-1.8-0.7-2.5,0L72.5,28.4L69.7,3.2c0-1.1-0.9-1.9-1.9-1.9c-1.1,0-1.8,0.9-1.8,1.9 l1.6,16.4l-9.4-9.4c-0.6-0.6-1.5-0.5-2.1,0c-0.6,0.6-0.5,1.4,0,2l9.7,9.7l2.9,25.2l-9.2,9.2c0,0-1.6,1.7-1.6,3.7c0,1,0,9.1,0,17.5 c0,4.5,0,9.1,0,12.6c0,3.7,0,6.2,0,6.2l-2.9-3.1l-6.3-6.3l-7-7V34.4l8.5-8.5c0.6-0.6,0.6-1.5,0-2.1c-0.6-0.6-1.5-0.6-2.1,0 l-8.4,8.4V22.5c0-1.1-0.9-2-2-2c-1.1,0.1-2,0.9-2,2l0.1,32.5L25,44.2c-0.9-0.9-2.3-0.9-3.2,0c-0.8,0.8-0.8,2.2,0,3.1l13.9,13.9 v15.2l-15-15.1c-1.1-1.1-3-1.1-4.1,0.1c-1.1,1.1-1.1,2.9,0,4l26.7,26.7l6.3,6.3l8.3,8.3v20h8.9v-32.1l10.3-8h19.5 c1.3,0,2.5-1.1,2.5-2.5c0-1.3-1.2-2.4-2.5-2.4H82.2l8.2-9.7h25.1c1,0,1.7-0.8,1.7-1.8C117.2,69.4,116.4,68.6,115.4,68.6z"></path>
</svg>
